<?xml version="1.0" encoding="UTF-8"?>
<svg width="128" height="128" viewBox="0 0 128 128" fill="none" xmlns="http://www.w3.org/2000/svg">
  <rect width="128" height="128" rx="25" fill="#4285F4"/>
  <path d="M64 32C56.268 32 50 38.268 50 46V64C50 71.732 56.268 78 64 78C71.732 78 78 71.732 78 64V46C78 38.268 71.732 32 64 32Z" fill="white"/>
  <path d="M58 64C58 67.3137 60.6863 70 64 70C67.3137 70 70 67.3137 70 64H58Z" fill="#4285F4"/>
  <path d="M64 82C66.2091 82 68 83.7909 68 86V90C68 92.2091 66.2091 94 64 94C61.7909 94 60 92.2091 60 90V86C60 83.7909 61.7909 82 64 82Z" fill="white"/>
  <path d="M42 64C42 70.6274 47.3726 76 54 76V84C44.0589 84 36 75.9411 36 66H42Z" fill="white"/>
  <path d="M74 64H80C80 75.0457 71.0457 84 60 84V76C66.6274 76 72 70.6274 72 64H74Z" fill="white"/>
</svg>
